<svg width="115" height="117" viewBox="0 0 115 117" fill="none" xmlns="http://www.w3.org/2000/svg">
<path d="M77.0817 20.7534C74.0603 10.5445 63.3887 3 50.6875 3C35.6377 3 23.4375 13.5925 23.4375 26.659C23.4375 28.8949 23.7947 31.0583 24.4623 33.1085M77.0817 20.7534C77.3661 20.7473 77.6514 20.7443 77.9375 20.7443C96.7497 20.7443 112 33.9849 112 50.3181C112 62.7493 103.166 73.3892 90.6506 77.7633M77.0817 20.7534V38.2421M24.4623 33.1085C12.1927 35.4125 3 44.8906 3 56.2328C3 67.257 11.6844 76.5201 23.4375 79.1465M24.4623 33.1085H37.0625" stroke="#262626" stroke-width="5" stroke-linecap="round" stroke-linejoin="round"/>
<path d="M79.3002 94.8714V100.321C79.3002 103.331 76.8601 105.771 73.8502 105.771H41.1502C38.1402 105.771 35.7002 103.331 35.7002 100.321V94.8714M57.5002 94.8714V62.1714M57.5002 62.1714L46.6002 73.0714M57.5002 62.1714L68.4003 73.0714" stroke="#262626" stroke-width="5" stroke-linecap="round" stroke-linejoin="round"/>
</svg>
